# xmcd
#
# Track frame offsets:
#	150
#	44826
#	90598
#	136935
#
# Disc length: 2398 seconds
#
# Revision: 1
# Processed by: cddbd v1.5.1PL0 Copyright (c) Steve Scherf et al.
# Submitted via: CDex 1.50Beta5
#
DISCID=31095c04
DTITLE=丹下桜 氷上恭子 - トラブルチョコレート T
DYEAR=1900
DGENRE=
TTITLE0=第一話・(1998.8.4)
TTITLE1=第二話・(1998.8.11)
TTITLE2=第三話・(1998.8.18)
TTITLE3=第四話・(1998.8.25)
EXTD=
EXTT0=
EXTT1=
EXTT2=
EXTT3=
PLAYORDER=
